<svg xmlns="http://www.w3.org/2000/svg" width="400" height="300" viewBox="0 0 400 300">
  <defs>
    <linearGradient id="g" x1="0" y1="0" x2="1" y2="1">
      <stop offset="0%" stop-color="#FBF6EC"/>
      <stop offset="100%" stop-color="#F3E7C9"/>
    </linearGradient>
  </defs>
  <rect width="400" height="300" fill="url(#g)"/>
  <rect x="1.5" y="1.5" width="397" height="297" fill="none" stroke="#D4A017" stroke-opacity="0.35" stroke-width="3"/>
  <path d="M22 44 v-22 h22" stroke="#D4A017" stroke-width="2" fill="none" stroke-linecap="round" opacity="0.6"/>
  <path d="M378 256 v22 h-22" stroke="#D4A017" stroke-width="2" fill="none" stroke-linecap="round" opacity="0.6"/>
  <circle cx="200" cy="150" r="72" fill="#FFFFFF" stroke="#D4A017" stroke-width="2"/>
  <g transform="translate(200,152)" fill="none" stroke-linecap="round" stroke-linejoin="round">
    <circle cx="18" cy="-22" r="9" stroke="#D4A017" stroke-width="3" fill="#FBF6EC"/>
    <path d="M-6 8 C-6 -18 10 -30 4 -34" stroke="#0B6E4F" stroke-width="4"/>
    <path d="M-6 -10 C-20 -14 -26 -26 -30 -30 C-18 -32 -8 -26 -6 -10 Z" stroke="#0B6E4F" stroke-width="3" fill="#0B6E4F" fill-opacity="0.12"/>
    <path d="M-4 -18 C6 -24 14 -34 22 -36 C16 -24 8 -18 -4 -12 Z" stroke="#0B6E4F" stroke-width="3" fill="#0B6E4F" fill-opacity="0.12"/>
    <path d="M-30 34 h48 l-8 -26 h-32 z" stroke="#0B6E4F" stroke-width="4"/>
    <path d="M-30 34 h48" stroke-width="4"/>
  </g>
</svg>
